<?xml version="1.0" encoding="UTF-8" standalone="no"?>
<svg
   xmlns:dc="http://purl.org/dc/elements/1.1/"
   xmlns:cc="http://creativecommons.org/ns#"
   xmlns:rdf="http://www.w3.org/1999/02/22-rdf-syntax-ns#"
   xmlns:svg="http://www.w3.org/2000/svg"
   xmlns="http://www.w3.org/2000/svg"
   xmlns:sodipodi="http://sodipodi.sourceforge.net/DTD/sodipodi-0.dtd"
   xmlns:inkscape="http://www.inkscape.org/namespaces/inkscape"
   viewBox="0 0 24 24"
   height="48"
   width="48"
   focusable="false"
   role="img"
   fill="currentColor"
   class="StyledIconBase-ea9ulj-0 jZGNBW"
   version="1.1"
   id="svg8"
   sodipodi:docname="drop.svg"
   inkscape:version="1.0.1 (3bc2e813f5, 2020-09-07)">
  <metadata
     id="metadata14">
    <rdf:RDF>
      <cc:Work
         rdf:about="">
        <dc:format>image/svg+xml</dc:format>
        <dc:type
           rdf:resource="http://purl.org/dc/dcmitype/StillImage" />
        <dc:title>DragDrop icon</dc:title>
      </cc:Work>
    </rdf:RDF>
  </metadata>
  <defs
     id="defs12" />
  <sodipodi:namedview
     pagecolor="#ffffff"
     bordercolor="#666666"
     borderopacity="1"
     objecttolerance="10"
     gridtolerance="10"
     guidetolerance="10"
     inkscape:pageopacity="0"
     inkscape:pageshadow="2"
     inkscape:window-width="1920"
     inkscape:window-height="1015"
     id="namedview10"
     showgrid="false"
     inkscape:zoom="14.895833"
     inkscape:cx="24"
     inkscape:cy="24"
     inkscape:window-x="0"
     inkscape:window-y="360"
     inkscape:window-maximized="1"
     inkscape:current-layer="svg8" />
  <title
     id="title2">DragDrop icon</title>
  <path
     fill="none"
     d="M0 0h24v24H0z"
     id="path4" />
  <path
     d="M16 13l6.964 4.062-2.973.85 2.125 3.681-1.732 1-2.125-3.68-2.223 2.15L16 13zm-2-7h2v2h5a1 1 0 011 1v4h-2v-3H10v10h4v2H9a1 1 0 01-1-1v-5H6v-2h2V9a1 1 0 011-1h5V6zM4 14v2H2v-2h2zm0-4v2H2v-2h2zm0-4v2H2V6h2zm0-4v2H2V2h2zm4 0v2H6V2h2zm4 0v2h-2V2h2zm4 0v2h-2V2h2z"
     id="path6" />
</svg>
